<svg xmlns="http://www.w3.org/2000/svg" width="18" height="18" viewBox="0 0 20 20"><rect width="20" height="20" rx="3" ry="3" fill="#f0f1f2"/><path d="M2 15c0-.5.4-1 1-1h1.7c.4-.9 1.3-1.5 2.3-1.5s1.9.6 2.3 1.5H17c.5 0 1 .5 1 1s-.5 1-1 1H9.3c-.4.9-1.3 1.5-2.3 1.5s-1.9-.6-2.3-1.5H3c-.6 0-1-.5-1-1m6 0c0-.5-.4-1-1-1s-1 .5-1 1 .4 1 1 1 1-.5 1-1m5-7.5c1 0 1.9.6 2.3 1.5H17c.5 0 1 .4 1 1s-.5 1-1 1h-1.7c-.4.9-1.3 1.5-2.3 1.5s-1.9-.6-2.3-1.5H3c-.6 0-1-.4-1-1s.4-1 1-1h7.7c.4-.9 1.3-1.5 2.3-1.5m1 2.5c0-.6-.5-1-1-1s-1 .4-1 1 .5 1 1 1 1-.4 1-1m3-6c.5 0 1 .4 1 1s-.5 1-1 1h-6.7C9.9 6.9 9 7.5 8 7.5S6.1 6.9 5.7 6H3c-.6 0-1-.4-1-1s.4-1 1-1h2.7C6.1 3.1 7 2.5 8 2.5s1.9.6 2.3 1.5zM7 5c0 .6.4 1 1 1s1-.4 1-1-.4-1-1-1-1 .4-1 1"/></svg>