<svg xmlns="http://www.w3.org/2000/svg" width="18" height="18" viewBox="0 0 20 20"><rect width="20" height="20" rx="3" ry="3" fill="#f0f1f2"/><path d="M12.3 2c-.6 0-1.1.5-1.1 1.1s.5 1.1 1.1 1.1h1.8L8 10.3c-.4.4-.4 1.2 0 1.6s1.2.4 1.6 0l6-6.1v1.8c0 .6.5 1.1 1.1 1.1s1.1-.5 1.1-1.1V3.1c0-.6-.5-1.1-1.1-1.1h-4.6ZM4.9 3.1C3.3 3.1 2 4.4 2 6v9.1C2 16.7 3.3 18 4.9 18H14c1.6 0 2.9-1.3 2.9-2.9v-2.9c0-.6-.5-1.1-1.1-1.1s-1.1.5-1.1 1.1v2.9c0 .3-.3.6-.6.6H4.9c-.3 0-.6-.3-.6-.6V6c0-.3.3-.6.6-.6h2.9c.6 0 1.1-.5 1.1-1.1s-.5-1.1-1.1-1.1H4.9Z"/></svg>