<svg xmlns="http://www.w3.org/2000/svg" width="18" height="18" viewBox="0 0 20 20"><rect width="20" height="20" rx="3" ry="3" fill="#f0f1f2"/><path d="M18 4.5c0 .6-.5 1.1-1.2 1.5-.9.5-2.3.9-3.8 1-.1 0-.2-.1-.4-.2C11.4 6.3 9.7 6 8 6h-.8C6.4 5.6 6 5 6 4.5 6 3.1 8.7 2 12 2s6 1.1 6 2.5M7 7h1c1.9 0 3.7.4 4.8 1q1.2.6 1.2 1.5v.4c-.1.4-.6.8-1.1 1.1-1.1.6-2.8 1-4.8 1s-3.5-.4-4.6-.9h-.2q-1.2-.6-1.2-1.5c0-1.1 1.7-2 4-2.4.3 0 .7 0 1-.1Zm7.2.8c.9-.1 1.7-.4 2.4-.6.5-.2 1-.5 1.4-.8v1.1c0 .6-.5 1.2-1.4 1.6-.5.2-1 .4-1.6.6v-.2c0-.7-.3-1.2-.8-1.7m-.2 4.7c0 .6-.5 1.1-1.2 1.5h-.2c-1.1.6-2.8.9-4.6.9s-3.7-.4-4.8-1Q2 13.3 2 12.4v-1.1c.4.3.9.6 1.4.8 1.2.5 2.9.8 4.6.8s3.4-.3 4.6-.8c.2-.1.5-.2.7-.3s.4-.2.5-.4l.1-.1v1.1Zm1-1.8c.6-.2 1.1-.3 1.6-.5s1-.5 1.4-.8v1.1c0 .3-.2.7-.5 1-.5.5-1.4.9-2.5 1.2zM8 16c1.8 0 3.4-.3 4.6-.8.5-.2 1-.5 1.4-.8v1.1c0 1.4-2.7 2.5-6 2.5s-6-1.1-6-2.5v-1.1c.4.3.9.6 1.4.8 1.2.5 2.9.8 4.6.8"/></svg>