<svg xmlns="http://www.w3.org/2000/svg" width="18" height="18" viewBox="0 0 20 20"><rect width="20" height="20" rx="3" ry="3" fill="#f0f1f2"/><path d="M7.4 13.4c.8 0 1.4.6 1.4 1.4v1.7c0 .8-.6 1.4-1.4 1.4H5.7c-.8 0-1.4-.6-1.4-1.4v-1.7c0-.8.6-1.4 1.4-1.4zm6.9 0c.8 0 1.4.6 1.4 1.4v1.7c0 .8-.6 1.4-1.4 1.4h-1.7c-.8 0-1.4-.6-1.4-1.4v-1.7c0-.8.6-1.4 1.4-1.4zm-8.6-1.1c-.8 0-1.4-.6-1.4-1.4V9.2c0-.8.6-1.4 1.4-1.4h1.7c.8 0 1.4.6 1.4 1.4v1.7c0 .8-.6 1.4-1.4 1.4zm8.6-4.6c.8 0 1.4.6 1.4 1.4v1.7c0 .8-.6 1.4-1.4 1.4h-1.7c-.8 0-1.4-.6-1.4-1.4V9.1c0-.8.6-1.4 1.4-1.4zM5.7 6.6c-.8 0-1.4-.6-1.4-1.4V3.5c0-.8.6-1.4 1.4-1.4h1.7c.8 0 1.4.6 1.4 1.4v1.7c0 .8-.6 1.4-1.4 1.4zM14.3 2c.8 0 1.4.6 1.4 1.4v1.7c0 .8-.6 1.4-1.4 1.4h-1.7c-.8 0-1.4-.6-1.4-1.4V3.4c0-.8.6-1.4 1.4-1.4z"/></svg>