<svg xmlns="http://www.w3.org/2000/svg" width="18" height="18" viewBox="0 0 20 20"><rect width="20" height="20" rx="3" ry="3" fill="#f0f1f2"/><path d="M9.8 2c-.9.1-1.6 1.1-1.6 2.3s.2 1.3.6 1.7l.3.4h-.5c-.5.2-.8.4-1.1.8s-.5.9-.6 1.6c-.3 1.1-.3 2.5-.3 3.8h1.5l.4 5.4h3.2l.4-5.4h1.4c0-1.2 0-2.6-.3-3.8-.1-.6-.3-1.2-.6-1.6s-.6-.6-1.2-.7h-.5l.3-.5c.3-.4.6-1 .6-1.7C11.8 3 11 2 10 2zm6.1 0c-1.1 0-2.1.9-2.4 2.1-.1.6-.2 1.2 0 1.7-.4 0-.7.2-1 .4.2.1.4.3.5.4.3-.1.6-.2.9-.2h.5l-.2-.4c-.2-.4-.2-1.1 0-1.7.3-1 1.1-1.7 1.8-1.7h.2c.8.2 1.3 1.3 1 2.4-.2.6-.5 1.2-.9 1.4l-.4.3.5.2c.4.2.7.5.9.8.2.4.2.8.2 1.3 0 .9-.3 2-.6 3.1l-1.2-.3L14 17h-1.4v.6h1.9l1.7-5.1 1.3.3v-.3c.4-1.1.7-2.4.8-3.5s0-1.1-.3-1.6c-.2-.4-.4-.7-.8-.9.4-.4.6-.9.8-1.5.4-1.4-.2-2.9-1.4-3.2s-.1 0-.2 0h-.2Zm-11.8.1h-.7c-1.1.4-1.6 1.8-1.2 3.2.2.6.4 1.1.8 1.5-.3.2-.6.5-.7.9-.2.5-.3 1-.3 1.6 0 1.1.3 2.4.6 3.5v.3l1.4-.4 1.7 5h2v-.6H6.1l-1.8-5.2-1.3.4c-.3-1-.5-2.1-.5-3.1 0-.5 0-.9.2-1.3s.4-.6.8-.8l.5-.2-.4-.3c-.4-.3-.8-.9-.9-1.5-.3-1.1.1-2.1.8-2.4s0 0 .2 0H4c.7 0 1.5.6 1.8 1.7.2.6.1 1.3 0 1.7l-.2.5h.5c.4-.1.8 0 1.1.2.1-.2.3-.3.5-.4C7.4 6.2 7 6 6.6 6c.1-.5.1-1.1 0-1.7-.3-1.2-1.3-2.1-2.4-2.1Z"/></svg>