<svg xmlns="http://www.w3.org/2000/svg" width="18" height="18" viewBox="0 0 20 20"><rect width="20" height="20" rx="3" ry="3" fill="#f0f1f2"/><path d="M16 9c1.1 0 2-.9 2-2V5c0-1.1-.9-2-2-2H4c-1.1 0-2 .9-2 2v2c0 1.1.9 2 2 2h5.2v2.7l-.7-.7c-.3-.3-.8-.3-1.1 0s-.3.8 0 1.1l2 2c.3.3.8.3 1.1 0l2-2c.3-.3.3-.8 0-1.1s-.8-.3-1.1 0l-.7.7V9zM4 11c-1.1 0-2 .9-2 2v2c0 1.1.9 2 2 2h12c1.1 0 2-.9 2-2v-2c0-1.1-.9-2-2-2h-2.3c.1.5 0 1.1-.2 1.5h2.6c.3 0 .5.2.5.5v2c0 .3-.2.5-.5.5H4c-.3 0-.5-.2-.5-.5v-2c0-.3.2-.5.5-.5h2.6c-.3-.4-.4-1-.2-1.5H4.1Z"/></svg>