<svg xmlns="http://www.w3.org/2000/svg" id="Layer_2" width="18" height="18" version="1.1" viewBox="0 0 20 20"><defs><style>.st0{fill:#f0f1f2}</style></defs><rect width="20" height="20" class="st0" rx="3" ry="3"/><path d="M2 15V5c0-.6.5-1 1-1 .6 0 1 .4 1 1v4.1l5.4-4.9c.6-.5 1.6 0 1.6.8v4.1l5.4-4.9c.6-.5 1.6 0 1.6.8v10c0 .9-1 1.3-1.6.8L11 10.9V15c0 .9-1 1.3-1.6.8L4 10.9V15c0 .5-.4 1-1 1s-1-.4-1-1Z"/><rect width="20" height="20" class="st0" rx="3" ry="3"/><path d="M2 15V5c0-.6.5-1 1-1 .6 0 1 .4 1 1v4.1l5.4-4.9c.6-.5 1.6 0 1.6.8v4.1l5.4-4.9c.6-.5 1.6 0 1.6.8v10c0 .9-1 1.3-1.6.8L11 10.9V15c0 .9-1 1.3-1.6.8L4 10.9V15c0 .5-.4 1-1 1s-1-.4-1-1Z"/></svg>