<svg xmlns="http://www.w3.org/2000/svg" width="18" height="18" viewBox="0 0 20 20"><rect width="20" height="20" rx="3" ry="3" fill="#f0f1f2"/><path d="M10.2 2c1 .1 1.8 1.2 1.8 2.5s-.2 1.4-.6 1.9c2.1.4 2.3 3.9 2.3 6.4h-1.4l-.4 5.2H8.2l-.3-5.2H6.5c0-2.5 0-6.1 2.2-6.4-.4-.5-.6-1.1-.6-1.8 0-1.4.9-2.5 2-2.5h.2ZM7.1 2c-1.1 0-2 1.1-2 2.5s.2 1.4.6 1.8c-2.3.4-2.2 3.9-2.2 6.4h1.4l.4 5.2h2.1l-.3-5.2H5.7c0-2.5 0-6.1 2.2-6.4-.4-.5-.6-1.1-.6-1.8s.4-1.7.9-2.1c-.3-.2-.5-.4-.9-.4h-.2Zm4.7.4c.6.5.9 1.2.9 2.1s-.2 1.4-.6 1.9c2.1.4 2.2 3.9 2.2 6.4h-1.4l-.4 5.2h2.1l.4-5.2h1.5c0-2.5-.2-6-2.3-6.4.4-.5.6-1.1.6-1.9 0-1.3-.8-2.4-1.8-2.5h-.2c-.4 0-.8.1-1.1.4Z"/></svg>