<svg xmlns="http://www.w3.org/2000/svg" width="18" height="18" viewBox="0 0 20 20"><rect width="20" height="20" rx="3" ry="3" fill="#f0f1f2"/><path d="M5.7 2c-.8.1-1.6 1.1-1.6 2.3s.2 1.3.6 1.7l.3.4h-.5c-.5.2-.8.4-1.1.8s-.5.9-.7 1.6c-.3 1.1-.3 2.5-.3 3.8h1.5l.4 5.4h3.3l.4-5.4h1.4c0-1.2 0-2.6-.3-3.8-.1-.6-.4-1.2-.6-1.6-.3-.4-.6-.6-1.2-.7h-.5l.3-.5c.3-.4.6-1 .6-1.7C7.7 3 6.9 2 5.9 2zm10.9.3c-.6 0-1 .5-1 1s.5 1.1 1 1.1 1-.5 1-1.1-.5-1-1-1m-4.4.7v1.6H8.7v.6h3.5v5.4h-1.9v.6h1.9v3.7H8.7v.6h3.5v1.1h2.7V16h-2.1v-4.8h2.1v-.6h-2.1v-7h2.1V3zm4.4 6.9c-.6 0-1 .5-1 1.1s.5 1.1 1 1.1 1-.5 1-1.1-.5-1.1-1-1.1m0 5.4c-.6 0-1 .5-1 1s.5 1 1 1 1-.5 1-1-.5-1-1-1"/></svg>