<svg xmlns="http://www.w3.org/2000/svg" width="18" height="18" viewBox="0 0 20 20"><rect width="20" height="20" rx="3" ry="3" fill="#f0f1f2"/><path d="M15.3 11c-.5-.5-1.3-.1-1.3.5V13h-1.5L6.8 5.4C6.6 5.2 6.3 5 6 5H3c-.6 0-1 .4-1 1s.4 1 1 1h2.5l5.7 7.6c.2.2.5.4.8.4h2v1.5c0 .7.8 1 1.3.5l2.5-2.5c.3-.3.3-.8 0-1.1l-2.5-2.5Zm-2.8-4H14v1.5c0 .7.8 1 1.3.5l2.5-2.5c.3-.3.3-.8 0-1.1l-2.5-2.5c-.5-.5-1.3-.1-1.3.5v1.5h-2c-.3 0-.6.1-.8.4L9.9 7l1.2 1.7 1.3-1.8Zm-7 6H3c-.6 0-1 .5-1 1s.4 1 1 1h3c.3 0 .6-.1.8-.4l1.3-1.7-1.2-1.7L5.6 13Z"/></svg>