<svg xmlns="http://www.w3.org/2000/svg" width="18" height="18" viewBox="0 0 20 20"><rect width="20" height="20" rx="3" ry="3" fill="#f0f1f2"/><path d="M10 2.8c-2.2 0-3.2.4-3.6.9-.4.4-.5 1.1-.5 1.8H7c0-.5.2-.9.7-1.2s1.3-.5 2.4-.5 1.9.1 2.4.5c.4.3.6.7.7 1.2h1c0-.7 0-1.3-.5-1.8s-1.5-.9-3.6-.9ZM5.3 6.1v.6h2.1v-.6zm7.2 0v.6h2.1v-.6zM4 7.3c-.5 0-1 .2-1.3.6s-.6.9-.6 1.3v6.7c0 .5.1.8.3 1s.5.3 1 .3h13.3c.5 0 .8-.1 1-.3s.3-.5.3-1V9.3c0-.4-.2-.9-.6-1.3s-.9-.6-1.3-.6H3.9Zm4.9 1.9h2.2v2.2h2.2v2.2h-2.2v2.2H8.9v-2.2H6.7v-2.2h2.2z"/></svg>