<svg xmlns="http://www.w3.org/2000/svg" width="18" height="18" viewBox="0 0 20 20"><rect width="20" height="20" rx="3" ry="3" fill="#f0f1f2"/><path d="M2 3c0-.6.4-1 1-1h2c.6 0 1 .4 1 1v2H2V3Zm0 3h4v8H2V6Zm0 9h4v2c0 .5-.4 1-1 1H3c-.6 0-1-.5-1-1v-2ZM7 3c0-.6.4-1 1-1h2c.6 0 1 .4 1 1v2H7V3Zm0 3h4v8H7V6Zm0 9h4v2c0 .5-.4 1-1 1H8c-.6 0-1-.5-1-1v-2Zm6.4-.6L12 9.3V6.5l3.1-.8 2.1 7.7-3.8 1Zm1.5-9.7-2.9.8V2.4l1.1-.3c.5-.1 1.1.2 1.2.7l.5 1.9Zm-1.3 10.7 3.8-1 .5 1.9c.1.5-.2 1.1-.7 1.2l-1.9.5c-.5.1-1.1-.2-1.2-.7l-.5-1.9Z"/></svg>