<svg xmlns="http://www.w3.org/2000/svg" width="18" height="18" viewBox="0 0 20 20"><rect width="20" height="20" rx="3" ry="3" fill="#f0f1f2"/><path d="M15.6 10.8c-.4 0-.8.4-.8.8v.3l-1.2-1.2c-.9-.9-2.3-.9-3.1 0s-.6.6-.6.6l-2-2c-.9-.8-2.3-.8-3.1 0l-1.2 1.2V6c0-.4.4-.8.8-.8h6.4c.4 0 .8-.4.8-.8s-.4-.8-.8-.8H4.4C3.1 3.6 2 4.7 2 6v9.6C2 16.9 3.1 18 4.4 18H14c1.3 0 2.4-1.1 2.4-2.4v-4c0-.4-.4-.8-.8-.8ZM4.4 16.4c-.4 0-.8-.4-.8-.8v-2.9l2.3-2.3c.2-.2.6-.2.9 0l2.5 2.5 3.4 3.4H4.3Zm10.4-.8c0 .1 0 .3-.1.4l-3.6-3.6.6-.6c.2-.2.6-.2.9 0l2.3 2.3v1.4ZM15.6 2c-.9 0-1.6.5-2.1 1.2-.2.4 0 .9.3 1.1.4.2.9 0 1.1-.3s.7-.5 1.1-.3c.2.1.4.4.4.7 0 .4-.4.8-.8.8s-.8.4-.8.8.4.8.8.8c1.3 0 2.4-1.1 2.4-2.4S16.9 2 15.6 2Zm.3 5.7h-.6l-.1.1h-.1c-.1.2-.2.5-.2.7 0 .2 0 .4.2.6.3.3.8.3 1.1 0 .1-.1.2-.4.2-.6 0-.3-.2-.6-.5-.7Z"/></svg>