<svg xmlns="http://www.w3.org/2000/svg" width="18" height="18" viewBox="0 0 20 20"><rect width="20" height="20" rx="3" ry="3" fill="#f0f1f2"/><path d="m12.2 2-2 2 .9.2-.5 1.9h-.5l.7 1.5 1.4-.9c-.2-.1-.4-.2-.7-.3l.5-1.9 1 .3-.7-2.7Zm-6.3.8v2.8l.8-.4 1 1.7c-.2.1-.3.3-.5.4l1.7.6.3-1.7c-.3 0-.5.1-.8.3l-1-1.7.9-.5-2.4-1.4Zm8.5 3.1.5.8-1.7 1c-.1-.2-.3-.3-.4-.5l-.5 1.6 1.7.3c0-.2-.1-.5-.2-.7l1.7-1 .5.9 1.4-2.4h-2.8ZM4.7 7.1 2 7.8l2 2 .2-.9 1.9.5v.7l1.6-.8-1-1.4c-.1.2-.2.4-.3.7l-1.9-.5.3-1Zm9.2 2.8-1.5.8 1 1.4.3-.6 1.9.5-.2.9 2.7-.7-2-1.9-.3 1-1.9-.5V10Zm-7.7 1c0 .2.1.4.2.6l-1.7 1-.4-.8-1.4 2.4h2.8l-.5-.9 1.7-1c.2.2.3.4.5.6l.6-1.7-1.7-.3Zm5 1.2-.3 1.7c.2 0 .4-.1.6-.2l1 1.7-.8.5 2.4 1.4v-2.8l-.9.5-1-1.7c.2-.1.4-.3.6-.5zm-1.8.2-1.5 1 .6.3-.5 1.9-.9-.2.7 2.7 1.9-2-1-.3.5-1.9h.8l-.8-1.6Z"/></svg>