<svg xmlns="http://www.w3.org/2000/svg" width="18" height="18" viewBox="0 0 20 20"><rect width="20" height="20" rx="3" ry="3" fill="#f0f1f2"/><path d="M6 2c-1.1 0-2 .9-2 2v12c0 1.1.9 2 2 2h8c1.1 0 2-.9 2-2V4c0-1.1-.9-2-2-2H6Zm1 2h6c.6 0 1 .4 1 1v1c0 .6-.4 1-1 1H7c-.6 0-1-.4-1-1V5c0-.6.4-1 1-1ZM6 9c0-.6.4-1 1-1s1 .4 1 1-.4 1-1 1-1-.4-1-1Zm1 2c.6 0 1 .4 1 1s-.4 1-1 1-1-.4-1-1 .4-1 1-1Zm-1 4c0-.5.4-1 1-1h3c.6 0 1 .5 1 1s-.4 1-1 1H7c-.6 0-1-.5-1-1Zm4-7c.6 0 1 .4 1 1s-.4 1-1 1-1-.4-1-1 .4-1 1-1Zm-1 4c0-.6.4-1 1-1s1 .4 1 1-.4 1-1 1-1-.4-1-1Zm4-4c.6 0 1 .4 1 1s-.4 1-1 1-1-.4-1-1 .4-1 1-1Zm-1 4c0-.6.4-1 1-1s1 .4 1 1-.4 1-1 1-1-.4-1-1Zm1 2c.6 0 1 .5 1 1s-.4 1-1 1-1-.5-1-1 .4-1 1-1Z"/></svg>