<svg xmlns="http://www.w3.org/2000/svg" width="18" height="18" viewBox="0 0 20 20"><rect width="20" height="20" rx="3" ry="3" fill="#f0f1f2"/><path d="M17.5 7.2c.1.3 0 .6-.2.8l-1.4 1.2v1.6l1.4 1.2c.2.2.3.5.2.8-.1.4-.3.7-.5 1.1v.2c-.4.3-.6.7-.8 1-.2.2-.5.3-.8.2l-1.7-.6c-.4.3-.9.6-1.4.8l-.4 1.8c0 .3-.3.5-.6.6-.4 0-.9.1-1.4.1s-.9 0-1.3-.1c-.3 0-.5-.3-.6-.6l-.4-1.8c-.5-.2-1-.5-1.4-.8l-1.7.6c-.3 0-.6 0-.8-.2-.2-.3-.5-.6-.7-1l-.2-.2c-.2-.3-.3-.7-.5-1.1 0-.3 0-.6.2-.8l1.3-1.2V9.2L2.5 8c-.2-.2-.3-.5-.2-.8.1-.4.3-.7.5-1.1l.2-.2c.2-.3.4-.7.7-1 .2-.2.5-.3.8-.2l1.7.6c.4-.3.9-.6 1.4-.8L8 2.7c0-.3.3-.5.6-.6.4 0 .9-.1 1.3-.1s.9 0 1.3.1c.3 0 .5.3.6.6l.4 1.8c.5.2 1 .5 1.4.8l1.7-.6c.3 0 .6 0 .8.2.2.3.5.6.7 1v.2c.3.3.5.7.6 1.1ZM10 12.5c1.4 0 2.5-1.1 2.5-2.5S11.4 7.5 10 7.5 7.5 8.6 7.5 10s1.1 2.5 2.5 2.5Z"/></svg>