<svg xmlns="http://www.w3.org/2000/svg" width="18" height="18" viewBox="0 0 20 20"><rect width="20" height="20" rx="3" ry="3" fill="#f0f1f2"/><path d="M10 17H4.2c-.4 0-.8 0-1.1-.2-.7-.4-1-1-1.1-1.8V5c0-1.1.9-2 2.1-2h11.8c.4 0 .8 0 1.1.2.7.4 1 1 1.1 1.8v10c0 1.1-.9 2-2.1 2h-5.9Zm6-12H9v10h7zM5.5 6.5h.7c.5 0 .8-.3.8-.8 0-.4-.3-.8-.8-.8H4.8c-.5 0-.8.3-.8.8 0 .4.3.8.8.8zm0 3h.7c.5 0 .8-.3.8-.8s-.3-.8-.8-.8H4.8c-.5 0-.8.3-.8.8s.3.8.8.8zm0 3h.7c.5 0 .8-.3.8-.8s-.3-.7-.8-.8H4.8c-.5 0-.8.3-.8.8s.3.7.8.8z"/></svg>