<svg xmlns="http://www.w3.org/2000/svg" width="18" height="18" viewBox="0 0 20 20"><rect width="20" height="20" rx="3" ry="3" fill="#f0f1f2"/><path d="M9.3 2.2q.75-.3 1.5 0l6.8 3.2c.3.1.4.4.4.7s-.2.6-.4.7L10.8 10q-.75.3-1.5 0L2.5 6.8c-.3-.1-.4-.4-.4-.7s.2-.5.4-.7zm8.3 7.1c.3.1.4.4.4.6s-.2.6-.4.7l-6.8 3.2q-.75.3-1.5 0l-6.8-3.2c-.3-.1-.4-.4-.4-.7s.2-.5.4-.6l1.7-.8L9 10.7c.7.3 1.6.3 2.3 0l4.8-2.2 1.7.8Zm-6.4 5.4 4.8-2.2 1.7.8c.3.1.4.4.4.6s-.2.6-.4.7l-6.8 3.2q-.75.3-1.5 0l-6.8-3.2c-.3-.1-.4-.4-.4-.7s.2-.5.4-.6l1.7-.8 4.8 2.2c.7.3 1.6.3 2.3 0Z"/></svg>