<svg xmlns="http://www.w3.org/2000/svg" width="18" height="18" viewBox="0 0 20 20"><rect width="20" height="20" rx="3" ry="3" fill="#f0f1f2"/><path d="M9.7 10c-.2-.5-.1-1.5 0-1.5.3 0 .2 1.1 0 1.5m-.1 1.5c-.2.6-.5 1.4-.9 2 .6-.2 1.2-.5 2-.7-.4-.3-.8-.7-1.1-1.3m-2.9 3.9s.4-.2 1.1-1.3c-.2.2-.9.8-1.1 1.3M11.8 7H16v10.2c0 .4-.3.8-.8.8H4.7c-.4 0-.8-.3-.8-.8V2.8c0-.4.3-.8.8-.8h6.2v4.2c0 .4.3.8.8.8Zm-.3 5.4c-.6-.4-1-.9-1.3-1.7.1-.6.4-1.5.2-2-.1-.9-1.3-.8-1.5-.2s0 1.4.2 2.4c-.4.9-.9 2-1.3 2.7-.9.4-2.3 1.4-1.7 2.1.2.2.5.3.7.3.6 0 1.1-.6 1.9-1.9.8-.3 1.7-.6 2.5-.7.7.4 1.5.6 2 .6.9 0 1-1 .6-1.4s-1.7-.3-2.3-.2m4.3-7.1-3.1-3.1c-.1-.1-.3-.2-.5-.2H12v4h4v-.2c0-.2 0-.4-.2-.5m-2.3 8c.1 0 0-.4-1.3-.3 1.2.5 1.3.3 1.3.3"/></svg>