<svg xmlns="http://www.w3.org/2000/svg" width="18" height="18" viewBox="0 0 20 20"><rect width="20" height="20" rx="3" ry="3" fill="#f0f1f2"/><path d="M12 5H8L6.5 2.8c-.2-.3 0-.8.4-.8H13c.4 0 .6.4.4.8L11.9 5ZM8 6h4c.1 0 .2.2.4.3C14.2 7.4 18 9.9 18 15s-1.3 3-3 3H5c-1.7 0-3-1.3-3-3 0-5.2 3.8-7.6 5.6-8.7.1-.1.3-.2.4-.3m2.6 2.8c0-.3-.3-.6-.6-.6s-.6.3-.6.6v.4c-.2 0-.5.1-.7.3-.4.3-.8.7-.8 1.4s.4 1 .8 1.3c.3.2.8.3 1.1.4.4.1.7.2.9.4.2.1.2.2.2.3 0 .2 0 .2-.2.3s-.4.2-.7.1c-.4 0-.7-.1-1.1-.3h-.2c-.3-.1-.7 0-.8.4s0 .7.4.8h.2c.3 0 .6.2.9.3v.5c0 .3.3.6.6.6s.6-.3.6-.6V15c.2 0 .5-.1.7-.3.4-.3.8-.8.8-1.4s-.4-1-.8-1.3c-.4-.2-.8-.4-1.2-.5q-.6-.15-.9-.3c-.2-.1-.2-.1-.2-.2s0-.2.2-.3.4-.2.7-.2.6 0 1 .2c.3 0 .7-.1.8-.4s-.1-.7-.4-.8c-.2 0-.4-.1-.7-.1V9Z"/></svg>