<svg xmlns="http://www.w3.org/2000/svg" width="18" height="18" viewBox="0 0 20 20"><rect width="20" height="20" rx="3" ry="3" fill="#f0f1f2"/><path d="M7.8 5.1c0-.7.6-1.3 1.3-1.3h1.8c.7 0 1.3.6 1.3 1.3v1.8c0 .7-.6 1.3-1.3 1.3h-.2v1.1h4.2c.9 0 1.6.7 1.6 1.6v.9h.2c.7 0 1.3.6 1.3 1.3v1.8c0 .7-.6 1.3-1.3 1.3h-1.8c-.7 0-1.3-.6-1.3-1.3v-1.8c0-.7.6-1.3 1.3-1.3h.2v-.9c0-.1-.1-.2-.2-.2h-4.2v1.1h.2c.7 0 1.3.6 1.3 1.3v1.8c0 .7-.6 1.3-1.3 1.3H9.1c-.7 0-1.3-.6-1.3-1.3v-1.8c0-.7.6-1.3 1.3-1.3h.2v-1.1H5.1c-.1 0-.2.1-.2.2v.9h.2c.7 0 1.3.6 1.3 1.3v1.8c0 .7-.6 1.3-1.3 1.3H3.3c-.7 0-1.3-.6-1.3-1.3v-1.8c0-.7.6-1.3 1.3-1.3h.2v-.9c0-.9.7-1.6 1.6-1.6h4.2V8.2h-.2c-.7 0-1.3-.6-1.3-1.3z"/></svg>