<svg xmlns="http://www.w3.org/2000/svg" width="18" height="18" viewBox="0 0 20 20"><rect width="20" height="20" rx="3" ry="3" fill="#f0f1f2"/><path d="M3.9 2.1c-.6 0-1.1.2-1.4.5-1.1 1.1-.4 3.7 1.7 5.7 1.4 1.4 3.1 1.5 4.3 1.9-1.3 1.2-2.8 2.3-4.4 3.4l2.1 2.1q1.65-2.7 3.6-4.8c2.3 1.5 3.8 4.3 5.4 7.1l2.9-3c-2.8-1.5-5.6-3-7.1-5.3 1.4-1.3 2.9-2.5 4.7-3.7l-2.1-2.1c-1 1.7-2.1 3.1-3.3 4.4-.4-1.1-.6-2.9-2-4.2C6.9 2.7 5.3 1.9 4 2Zm.6 1.6c.7 0 1.7.6 2.6 1.4 1.3 1.2 1.8 2.7 1.2 3.3S6.2 8.4 5 7.2C3.7 6 3.2 4.5 3.8 3.9c.2-.2.4-.2.7-.2"/></svg>