<svg xmlns="http://www.w3.org/2000/svg" width="18" height="18" viewBox="0 0 20 20"><rect width="20" height="20" rx="3" ry="3" fill="#f0f1f2"/><path d="m12.1 10.2 2.4-2.4c.3-.3.3-.7 0-.9l-1.4-1.4c-.3-.3-.7-.3-.9 0L9.9 7.9l-7.6 7.6c-.3.3-.3.7 0 .9l1.4 1.4c.3.3.7.3.9 0l7.6-7.6Zm.5-3.3.5.5-1.4 1.4-.5-.5zm-8.5 9.5-.5-.5 6.6-6.6.5.5zm13.2-9.7H16c-.4 0-.7.3-.7.7s.3.7.7.7h1.3c.4 0 .7-.3.7-.7s-.3-.7-.7-.7m-4.6-2c.4 0 .7-.3.7-.7V2.7c0-.4-.3-.7-.7-.7s-.7.3-.7.7V4c0 .4.3.7.7.7m0 6c-.4 0-.7.3-.7.7v.7c0 .4.3.7.7.7s.7-.3.7-.7v-.7c0-.4-.3-.7-.7-.7M9.8 5.5c.3.3.7.3.9 0s.3-.7 0-.9l-.9-.9c-.3-.3-.7-.3-.9 0s-.3.7 0 .9zm5.7 3.7c-.3-.3-.7-.3-.9 0s-.3.7 0 .9l.9.9c.3.3.7.3.9 0s.3-.7 0-.9zm0-3.7.9-.9c.3-.3.3-.7 0-.9s-.7-.3-.9 0l-.9.9c-.3.3-.3.7 0 .9s.7.3.9 0"/></svg>