<svg xmlns="http://www.w3.org/2000/svg" width="18" height="18" viewBox="0 0 20 20"><rect width="20" height="20" rx="3" ry="3" fill="#f0f1f2"/><path d="M4.8 2c-.4 0-.8.3-.8.8v14.5c0 .4.3.8.8.8h10.5c.4 0 .8-.3.8-.8V7h-4.2c-.4 0-.8-.3-.8-.8V2H4.9ZM12 2v4h4v-.2c0-.2 0-.4-.2-.5l-3.1-3.1c-.1-.1-.3-.2-.5-.2zM6 7.8h1.1c.2 0 .4.1.5.3l2.5 5.7 2.5-5.7c0-.2.3-.3.5-.3h1.1c.3 0 .5.2.5.5v8.5c0 .3-.2.5-.5.5h-.9c-.3 0-.5-.2-.5-.5v-4.9l-1.9 4.2c0 .2-.3.3-.5.3h-.8c-.2 0-.4-.1-.5-.3l-1.9-4.2v4.9c0 .3-.2.5-.5.5h-.9c-.3 0-.5-.2-.5-.5V8.3c0-.3.2-.5.5-.5Z"/></svg>