<svg xmlns="http://www.w3.org/2000/svg" width="18" height="18" viewBox="0 0 20 20"><rect width="20" height="20" rx="3" ry="3" fill="#f0f1f2"/><path d="M10 9.7c-.4 0-.7.3-.7.7 0 2.2-.2 4.4-.9 6.6-.1.3 0 1 .7 1s.6-.2.7-.5c.4-1.5.9-3.9.9-7 0-.4-.3-.8-.8-.8Zm0-2.6c-1.9 0-3.2 1.5-3.2 3.2 0 1.5-.1 3-.4 4.5 0 .4.2.8.6.9.4 0 .8-.2.9-.6.3-1.6.5-3.2.4-4.8 0-.8.6-1.7 1.7-1.7 1 0 1.8.8 1.8 1.7 0 1.5 0 3-.3 4.5 0 .4.2.8.6.9.6.1.8-.5.9-.6.3-1.5.4-3.1.3-4.7 0-1.8-1.5-3.2-3.3-3.2Zm-3.5-.6c-.3-.3-.8-.2-1.1.1-.8 1-1.2 2.2-1.2 3.5 0 1.2 0 2.3-.3 3.5 0 .4.2.8.6.9.6.1.9-.5.9-.6.2-1.2.3-2.5.3-3.8 0-.9.3-1.8.9-2.5.3-.3.2-.8 0-1.1Zm3.4-1.9c-.4 0-.9 0-1.4.2-.4 0-.6.5-.6.9.1.4.5.6.9.6s.7-.1 1.1-.1c2.3 0 4.3 1.9 4.3 4.2 0 1.2 0 2.3-.2 3.5 0 .4.2.8.7.8.5 0 .8-.4.8-.7.1-1.2.2-2.5.2-3.7 0-3.1-2.7-5.6-5.8-5.7Zm7.9 3.8c0-.4-.5-.7-.9-.6-.4 0-.7.5-.6.9.1.7.1 1.2.1 1.9s.3.8.7.8c.4 0 .8-.3.8-.7 0-.7 0-1.4-.2-2.2Zm-1.3-2.9C15 3.3 12.5 2 9.9 2c-2.2 0-4.2.8-5.7 2.3C2.7 5.7 2 7.7 2 9.7v.7c0 .4.3.8.8.8.4 0 .7-.3.7-.7v-.7c0-1.6.6-3.2 1.8-4.3s2.9-1.9 4.6-1.8c2.2 0 4.2 1.1 5.5 2.9.2.3.7.4 1 .2.3-.2.4-.7.2-1Z"/></svg>

