<svg xmlns="http://www.w3.org/2000/svg" width="18" height="18" viewBox="0 0 20 20"><rect width="20" height="20" rx="3" ry="3" fill="#f0f1f2"/><path d="M9.5 5h2c.3 0 .5-.2.5-.5v-1c0-.3-.2-.5-.5-.5h-2c-.3 0-.5.2-.5.5v1c0 .3.2.5.5.5m0 4h4c.3 0 .5-.2.5-.5v-1c0-.3-.2-.5-.5-.5h-4c-.3 0-.5.2-.5.5v1c0 .3.2.5.5.5m8 6h-8c-.3 0-.5.2-.5.5v1c0 .3.2.5.5.5h8c.3 0 .5-.2.5-.5v-1c0-.3-.2-.5-.5-.5m-8-2h6c.3 0 .5-.2.5-.5v-1c0-.3-.2-.5-.5-.5h-6c-.3 0-.5.2-.5.5v1c0 .3.2.5.5.5m-2 0H6V3.5c0-.3-.2-.5-.5-.5h-1c-.3 0-.5.2-.5.5V13H2.5c-.4 0-.7.5-.3.9l2.5 3c.2.2.5.2.7 0l2.5-3c.3-.3 0-.9-.4-.9"/></svg>