<svg xmlns="http://www.w3.org/2000/svg" width="18" height="18" viewBox="0 0 20 20"><rect width="20" height="20" rx="3" ry="3" fill="#f0f1f2"/><path d="M8.8 2h2.5c.4 0 .8.3.8.8V8h2.7c.6 0 .8.7.4 1.1l-4.8 4.8c-.2.2-.6.2-.9 0L4.7 9.1c-.4-.4-.1-1.1.4-1.1h2.7V2.8c0-.4.3-.8.7-.8ZM18 13.8v3.5c0 .4-.3.8-.8.8H2.8c-.4 0-.8-.3-.8-.8v-3.5c0-.4.3-.8.8-.8h4.6l1.5 1.5c.6.6 1.6.6 2.3 0l1.5-1.5h4.6c.4 0 .8.3.8.7Zm-3.9 2.7c0-.3-.3-.6-.6-.6s-.6.3-.6.6.3.6.6.6.6-.3.6-.6m2 0c0-.3-.3-.6-.6-.6s-.6.3-.6.6.3.6.6.6.6-.3.6-.6"/></svg>