<svg xmlns="http://www.w3.org/2000/svg" width="18" height="18" viewBox="0 0 20 20"><rect width="20" height="20" rx="3" ry="3" fill="#f0f1f2"/><path d="M11.5 15h-2c-.3 0-.5.2-.5.5v1c0 .3.2.5.5.5h2c.3 0 .5-.2.5-.5v-1c0-.3-.2-.5-.5-.5m-9-8H4v9.5c0 .3.2.5.5.5h1c.3 0 .5-.2.5-.5V7h1.5c.4 0 .7-.5.4-.9l-2.5-3c-.2-.2-.5-.2-.7 0l-2.5 3c-.3.3 0 .9.3.9m13 0h-6c-.3 0-.5.2-.5.5v1c0 .3.2.5.5.5h6c.3 0 .5-.2.5-.5v-1c0-.3-.2-.5-.5-.5m-2 4h-4c-.3 0-.5.2-.5.5v1c0 .3.2.5.5.5h4c.3 0 .5-.2.5-.5v-1c0-.3-.2-.5-.5-.5m4-8h-8c-.3 0-.5.2-.5.5v1c0 .3.2.5.5.5h8c.3 0 .5-.2.5-.5v-1c0-.3-.2-.5-.5-.5"/></svg>