<svg xmlns="http://www.w3.org/2000/svg" width="18" height="18" viewBox="0 0 20 20"><rect width="20" height="20" rx="3" ry="3" fill="#f0f1f2"/><path d="M2 5.6c0-1 .8-1.8 1.8-1.8h12.4c1 0 1.8.8 1.8 1.8v8.9c0 1-.8 1.8-1.8 1.8H3.8c-1 0-1.8-.8-1.8-1.8zM6.4 10c0-.5-.4-.9-.9-.9s-.9.4-.9.9.4.9.9.9.9-.4.9-.9m0-2.7c0-.5-.4-.9-.9-.9s-.9.4-.9.9.4.9.9.9.9-.4.9-.9m0 5.4c0-.5-.4-.9-.9-.9s-.9.4-.9.9.4.9.9.9.9-.4.9-.9m1.8-6c-.4 0-.7.3-.7.7s.3.7.7.7h6.2c.4 0 .7-.3.7-.7s-.3-.7-.7-.7zm0 2.6c-.4 0-.7.3-.7.7s.3.7.7.7h6.2c.4 0 .7-.3.7-.7s-.3-.7-.7-.7zm0 2.7c-.4 0-.7.3-.7.7s.3.7.7.7h6.2c.4 0 .7-.3.7-.7s-.3-.7-.7-.7z"/></svg>