<svg xmlns="http://www.w3.org/2000/svg" width="18" height="18" viewBox="0 0 20 20"><rect width="20" height="20" rx="3" ry="3" fill="#f0f1f2"/><path d="M9.4 2C7.5 2 5.7 3 4.3 4.4c-1.8 1.9-2.8 4.7-2.1 7.1.6-.3 1.1-.5 1.7-.7-.2-4.2 3-7.1 6.7-7.1.1-.4.4-.9.6-1.4-.6-.2-1.1-.3-1.6-.3zm1.1 2.3c-3.3 0-6.1 2.6-5.9 6.3.4 0 .7-.1 1.1-.2h1.4l3.7-3.7c-.2-.4-.3-.9-.3-1.3V4.2Zm2 2.1-.6.6 1 1 .6-.6zm-1.2.8-4 4 1.5 1.5 4-4zm6.4 1.5c-.5.3-1 .5-1.4.6 0 3.7-2.9 7-7.1 6.7-.2.5-.4 1.1-.7 1.6 2.4.7 5.2-.3 7.1-2.1s3-4.4 2.1-6.9Zm-4.6.5-3.6 3.6c.1.5.1.9.1 1.5 0 .4 0 .7-.2 1.1 3.7.1 6.2-2.7 6.3-6-.4 0-.8.1-1.2 0-.5 0-.9-.1-1.4-.3Zm-6 2.7-5 5V18h1l5.1-5.1-1-1Z"/></svg>