<svg xmlns="http://www.w3.org/2000/svg" width="18" height="18" viewBox="0 0 20 20"><rect width="20" height="20" rx="3" ry="3" fill="#f0f1f2"/><path d="M17.7 1.6c-.8-.8-2-.8-2.8 0l-1.1 1.1 3.5 3.5 1.1-1.1c.8-.8.8-2 0-2.8zM7.1 9.4c-.2.2-.4.5-.5.8l-1.1 3.1c-.1.3 0 .6.2.9s.6.3.9.2l3.2-1.1c.3-.1.6-.3.8-.5l5.9-5.9L13 3.4 7.1 9.3ZM4.4 3.1C2.5 3.1 1 4.6 1 6.5v9.1C1 17.5 2.5 19 4.4 19h9.1c1.9 0 3.4-1.5 3.4-3.4v-3.4c0-.6-.5-1.1-1.1-1.1s-1.1.5-1.1 1.1v3.4c0 .6-.5 1.1-1.1 1.1H4.4c-.6 0-1.1-.5-1.1-1.1V6.5c0-.6.5-1.1 1.1-1.1h3.4c.6 0 1.1-.5 1.1-1.1s-.5-1.1-1.1-1.1H4.4Z"/></svg>