<svg xmlns="http://www.w3.org/2000/svg" width="18" height="18" viewBox="0 0 20 20"><rect width="20" height="20" rx="3" ry="3" fill="#f0f1f2"/><path d="M4.7 2h-.4c-.7 0-1.3.5-1.8 1.1-.8 1.3 0 3.3 1.9 3.3h2c-.4 1.1-1 2.2-1.8 3.4 0 .1-.1.2-.2.4l1.2 1.2-1.9.3c-1.1 2.9-.9 6.1 1.6 6.1h.3c.8 0 1.6-.1 2.1-.4.1 0 .3-.2.4-.3H7c-.7.2-1.4-.2-1.6-.9-.3-.9.2-1.8 1.1-2 .2 0 .4-.1.6-.1h6c0-1.5.5-3.1 1.7-4.3.8-.9 1.4-2.1 1.7-3.2l-1.4-.8 1.3-.2-1.5-.9 1.8-.3c-.2-1.3-1-2.3-2.6-2.3-1.5.3-5.5.4-7.9.2-.5-.2-1-.4-1.6-.4Zm0 .6c.4 0 .9.1 1.4.4.2.2.3.3.4.5H4l.4.5c.4.5.7 1.1.7 1.4v.3s-.2.1-.5.1c-1.4 0-1.9-1.5-1.4-2.3.4-.5.8-.8 1.3-.9h.3Zm.5 1.5h1.6c.1.5.1 1.1 0 1.7H5.7v-.5c0-.4-.2-.8-.5-1.2m3.4 10.7c.2.2.4.5.4.8.1.6.1 1 0 1.5-.1.4-.4.7-.8.9h8c.5 0 .8-.2 1.1-.5.2-.3.4-.7.4-1.1V16l-2.4-.3 1.4-.7c-.3-.1-.6-.2-1.1-.2zm-1.4 0h-.4c-.5.2-.9.7-.7 1.2.1.4.5.6.9.5s1.5 0 1.5 0v-.8c-.1-.5-.7-1-1.3-1Z"/></svg>